# xmcd
#
# Track frame offsets: 
#        150
#        22233
#        40808
#        61565
#        87709
#        111483
#        138863
#        164204
#        186865
#        211468
#        234618
#
# Disc length: 3477 seconds
#
# Revision: 5
# Processed by: cddbd v1.5.2PL0 Copyright (c) Steve Scherf et al.
# Submitted via: ExactAudioCopy v1.3
#
DISCID=a30d930b
DTITLE=Cassandra Wilson - Closer To You: The Pop Side
DYEAR=2009
DGENRE=Jazz
TTITLE0=Love Is Blindness
TTITLE1=Time After Time
TTITLE2=Fragile
TTITLE3=Closer To You
TTITLE4=Last Train To Clarksville
TTITLE5=The Weight
TTITLE6=Tupelo Honey
TTITLE7=Harvest Moon
TTITLE8=I Can't Stand The Rain
TTITLE9=Lay, Lady, Lay
TTITLE10=Wichita Lineman
EXTD=YEAR: 2009
EXTT0=
EXTT1=
EXTT2=
EXTT3=
EXTT4=
EXTT5=
EXTT6=
EXTT7=
EXTT8=
EXTT9=
EXTT10=
PLAYORDER=
